<?xml version="1.0" standalone="no"?>
<!DOCTYPE svg PUBLIC "-//W3C//DTD SVG 20010904//EN"
 "http://www.w3.org/TR/2001/REC-SVG-20010904/DTD/svg10.dtd">
<svg version="1.0" xmlns="http://www.w3.org/2000/svg"
 width="300.000000pt" height="170.000000pt" viewBox="0 0 300.000000 170.000000"
 preserveAspectRatio="xMidYMid meet">
<metadata>
Created by potrace 1.10, written by Peter Selinger 2001-2011
</metadata>
<g transform="translate(0.000000,170.000000) scale(0.100000,-0.100000)"
fill="#000000" stroke="none">
<path d="M1494 1171 c-2 -2 -4 -22 -4 -43 0 -31 -4 -38 -20 -38 -12 0 -26 12
-35 30 -9 17 -18 30 -22 30 -9 0 -73 -41 -73 -47 0 -3 9 -17 20 -33 17 -24 18
-29 5 -40 -12 -10 -21 -8 -49 14 l-34 26 -21 -36 c-12 -19 -21 -39 -21 -43 0
-11 67 -30 115 -33 31 -2 44 2 58 20 10 12 24 22 30 22 7 0 25 7 42 16 16 8
31 11 33 6 4 -13 42 -3 65 16 9 8 17 12 17 8 0 -4 20 5 45 20 25 14 48 24 51
21 3 -3 -4 -10 -15 -17 -12 -6 -18 -16 -15 -22 5 -8 1 -9 -11 -4 -19 7 -65
-17 -65 -34 0 -13 67 -5 84 9 7 6 16 7 21 3 4 -4 5 0 3 8 -3 8 5 27 19 41 l24
26 -40 26 -40 27 -22 -33 c-12 -17 -23 -33 -24 -35 -1 -1 -10 1 -20 4 -13 6
-16 15 -12 45 l5 37 -45 4 c-24 2 -46 1 -49 -1z m-97 -65 c-4 -11 -1 -13 10
-9 13 5 14 3 4 -15 -7 -12 -16 -22 -21 -22 -13 0 -18 23 -8 43 11 21 22 23 15
3z m152 -3 c-10 -11 -10 -14 -1 -9 6 4 12 3 12 -2 0 -10 -26 -25 -46 -27 -6 0
-23 -8 -38 -18 -55 -36 -46 -10 11 30 62 44 84 53 62 26z m-104 -41 c-53 -44
-105 -82 -114 -82 -6 0 -11 7 -11 16 0 8 5 12 10 9 9 -6 58 23 88 52 7 7 19
13 25 13 7 0 7 -3 2 -8z"/>
<path d="M1748 1034 c-21 -13 -40 -24 -43 -24 -3 0 -15 -2 -28 -5 -21 -6 -22
-11 -22 -96 0 -49 4 -88 8 -86 5 1 20 29 33 62 24 58 22 74 -11 75 -5 0 -3 5
5 10 12 8 12 10 -5 11 -20 0 -20 0 0 8 23 10 54 -8 34 -19 -18 -12 3 -18 49
-16 60 3 68 15 43 65 -12 22 -22 41 -24 40 -1 0 -19 -11 -39 -25z"/>
<path d="M1152 918 l-2 -28 92 6 c91 6 94 6 125 -20 62 -52 51 -175 -20 -231
-30 -23 -30 -24 -7 -18 40 9 91 53 107 91 10 24 14 57 11 95 -4 50 -9 63 -39
92 l-34 34 -116 4 -115 4 -2 -29z"/>
<path d="M2471 792 l0 -160 31 2 31 2 -2 67 c-3 76 15 117 49 117 29 0 42 -43
38 -122 l-4 -68 32 0 31 0 -4 93 c-6 108 -22 140 -73 145 -18 2 -37 -1 -43 -7
-21 -21 -29 -10 -25 37 3 46 3 47 -29 50 l-32 3 0 -159z"/>
<path d="M270 931 c0 -6 4 -12 8 -15 5 -3 28 -68 52 -144 l43 -140 32 1 c30 1
33 4 56 69 13 37 26 68 30 68 4 0 15 -29 24 -64 17 -64 18 -64 56 -68 34 -3
39 -1 39 18 0 12 18 73 40 135 23 63 43 122 47 132 4 14 -1 17 -36 17 -33 0
-41 -4 -41 -18 0 -10 -6 -38 -14 -63 -8 -24 -17 -57 -21 -74 -9 -39 -17 -23
-41 78 l-18 77 -36 0 -36 0 -24 -87 c-22 -79 -40 -112 -62 -113 -5 0 -8 5 -8
10 0 6 7 10 15 10 19 0 19 1 -7 98 l-23 82 -37 0 c-21 0 -38 -4 -38 -9z m237
-21 c1 -11 -7 -25 -18 -30 -24 -13 -25 -2 -1 17 16 14 16 14 -3 9 -20 -6 -20
-6 -1 9 11 8 20 15 21 15 0 0 1 -9 2 -20z m18 -40 c3 -5 -12 -18 -34 -30 -23
-11 -42 -16 -46 -10 -3 5 11 18 32 29 46 24 41 23 48 11z m5 -35 c0 -2 -22
-16 -50 -30 -61 -31 -66 -25 -7 9 41 25 57 31 57 21z m-16 -37 c-5 -8 0 -9 14
-6 12 4 20 2 16 -3 -3 -5 1 -9 8 -9 10 0 10 -2 0 -9 -17 -10 -17 -21 -2 -31 7
-4 9 -13 6 -19 -11 -17 -29 -13 -22 4 3 8 0 15 -7 15 -8 0 -6 4 3 10 13 8 13
10 -1 10 -16 0 -32 34 -21 44 10 10 13 6 6 -6z m108 -25 c-6 -2 -10 -9 -6 -14
3 -5 1 -9 -5 -9 -5 0 -8 -8 -6 -17 1 -10 0 -22 -4 -28 -3 -5 -6 -17 -6 -25 0
-8 -9 -16 -20 -18 -20 -3 -20 -3 0 13 19 16 19 16 -10 10 l-30 -6 30 18 c33
20 48 50 19 39 -11 -4 -9 2 7 19 13 13 29 24 34 24 6 0 4 -3 -3 -6z m-164 -27
c-10 -7 -15 -16 -12 -19 3 -3 3 -11 -1 -17 -5 -8 -10 -8 -20 0 -8 7 -14 7 -17
1 -2 -6 -9 -7 -17 -2 -10 6 -2 15 30 34 43 26 71 27 37 3z"/>
<path d="M1490 853 c0 -48 -3 -119 -7 -157 -5 -57 -4 -68 8 -64 8 3 24 1 37
-3 22 -8 22 -8 22 86 0 85 2 95 21 105 11 6 25 9 32 7 7 -3 0 -8 -15 -12 -16
-4 -28 -10 -28 -14 0 -3 12 -42 27 -87 26 -77 29 -81 59 -82 30 -1 32 2 64 86
18 48 37 91 41 96 4 5 5 -35 2 -88 l-6 -96 36 0 36 0 3 153 3 152 -49 -5 -50
-5 -35 -87 c-20 -49 -38 -88 -41 -88 -3 0 -19 42 -36 93 l-30 92 -47 3 -47 3
0 -88z m305 57 c7 -11 -52 -50 -75 -50 -8 1 0 9 18 18 18 10 29 21 25 25 -4 5
1 5 11 1 14 -5 17 -4 12 4 -4 7 -5 12 -2 12 3 0 8 -4 11 -10z m-211 -27 c3 -8
-10 -21 -35 -34 -51 -25 -61 -19 -17 11 32 21 33 21 6 16 -33 -8 -37 1 -6 13
31 11 46 10 52 -6z m196 -33 c-9 -16 -8 -19 6 -13 12 4 15 3 10 -5 -4 -7 -17
-10 -31 -6 -20 5 -27 1 -35 -20 -5 -14 -15 -26 -22 -26 -9 0 -8 3 2 10 12 7
12 12 3 21 -10 10 -5 17 25 35 46 29 56 30 42 4z m-230 -30 c-39 -35 -37 -34
-37 -15 0 8 14 21 31 29 43 22 44 20 6 -14z m258 -84 c3 -71 2 -74 -18 -69
-16 4 -18 8 -9 19 6 8 8 14 4 14 -4 0 -3 6 3 13 6 7 7 18 2 26 -4 8 -6 20 -4
28 11 37 14 43 16 43 2 0 5 -33 6 -74z m-109 7 c-21 -25 -79 -47 -92 -34 -6 6
-9 11 -6 12 38 6 54 12 72 24 29 20 43 19 26 -2z m-19 -42 c0 -6 -5 -13 -10
-16 -6 -4 -8 -10 -5 -15 3 -4 -1 -10 -9 -13 -10 -4 -12 0 -9 14 4 15 1 18 -13
13 -11 -3 -9 1 6 10 29 18 40 20 40 7z"/>
<path d="M737 879 c-62 -33 -83 -107 -51 -175 29 -60 105 -84 172 -54 91 41
107 160 31 225 -38 31 -97 33 -152 4z m115 -57 c26 -22 32 -69 14 -97 -20 -30
-79 -34 -108 -8 -24 21 -24 85 0 105 33 29 60 29 94 0z"/>
<path d="M950 767 l0 -134 31 0 c31 0 31 1 27 49 -1 26 -1 48 1 48 2 0 26 -22
52 -50 49 -51 85 -64 108 -37 13 16 5 27 -19 27 -9 0 -31 15 -49 34 l-33 34
28 13 c16 8 35 26 44 42 13 24 13 30 0 54 -22 39 -55 53 -127 53 l-63 0 0
-133z m135 48 c0 -16 -8 -21 -37 -23 -35 -3 -38 -1 -38 23 0 24 3 26 38 23 29
-2 37 -7 37 -23z m-38 -53 c-10 -2 -14 -8 -10 -15 5 -9 3 -9 -8 0 -9 8 -20 9
-29 3 -20 -13 -33 -13 -25 0 8 13 67 29 80 21 6 -3 2 -7 -8 -9z"/>
<path d="M1903 880 c-18 -10 -40 -31 -49 -45 -36 -55 -12 -159 43 -184 68 -31
162 1 189 64 18 44 18 65 -2 115 -27 68 -113 92 -181 50z m117 -67 c16 -20 20
-36 16 -58 -4 -16 -7 -35 -8 -41 -1 -6 -22 -12 -48 -13 -54 -2 -68 10 -77 62
-11 70 73 106 117 50z"/>
<path d="M2110 764 l0 -135 28 3 c27 3 27 4 32 93 3 50 9 96 13 103 5 6 21 12
38 12 l29 0 0 -105 0 -105 30 0 c28 0 30 2 30 40 0 37 2 40 19 30 62 -33 131
11 131 82 0 80 -56 132 -119 110 -16 -6 -32 -8 -35 -4 -3 3 -49 7 -101 8 l-95
3 0 -135z m285 31 c0 -36 -3 -40 -28 -43 -16 -2 -35 2 -43 9 -33 27 -2 82 45
77 23 -3 26 -7 26 -43z m53 -16 c0 -23 -6 -33 -30 -45 -38 -20 -82 -28 -73
-14 3 5 16 10 29 10 23 0 63 36 62 55 -1 6 -5 16 -9 22 -5 9 -3 11 6 7 8 -3
14 -18 15 -35z"/>
<path d="M2730 877 c0 -21 4 -25 21 -22 28 6 28 6 18 30 -4 11 -8 14 -8 6 -1
-11 -4 -11 -16 -1 -13 11 -15 8 -15 -13z"/>
<path d="M1285 873 c22 -3 44 -8 48 -12 4 -4 -17 -6 -47 -3 -51 4 -57 2 -86
-26 -39 -39 -43 -107 -7 -140 100 -93 234 9 170 131 -16 31 -16 32 3 18 10 -7
6 -2 -9 13 -22 20 -37 26 -70 24 l-42 -1 40 -4z m29 -69 c19 -18 21 -65 4 -82
-31 -31 -98 -3 -98 40 0 49 61 76 94 42z"/>
<path d="M756 549 c-11 -17 -13 -26 -4 -36 13 -16 44 -17 54 -2 4 7 -2 9 -17
7 -16 -2 -24 2 -24 12 0 8 8 14 18 14 10 -1 16 3 14 9 -6 20 -25 18 -41 -4z"/>
<path d="M836 554 c-9 -8 -16 -18 -16 -22 1 -38 63 -42 68 -5 4 30 -31 49 -52
27z m38 -12 c2 -4 1 -14 -4 -22 -7 -11 -12 -12 -21 -3 -6 6 -8 16 -5 22 8 13
23 14 30 3z"/>
<path d="M1023 552 c-6 -25 -23 -30 -23 -7 0 8 -4 15 -10 15 -5 0 -10 -2 -10
-5 0 -11 24 -55 31 -55 9 0 31 62 24 69 -3 3 -8 -5 -12 -17z"/>
<path d="M1057 563 c-2 -5 -4 -20 -5 -35 -2 -25 1 -28 31 -27 23 1 26 3 10 6
-27 5 -31 23 -5 24 14 0 14 2 -3 9 -19 8 -19 9 3 9 13 1 20 5 17 11 -7 12 -42
13 -48 3z"/>
<path d="M1127 563 c-11 -10 -8 -63 3 -63 6 0 10 5 10 12 0 9 3 9 12 0 17 -17
33 -15 19 2 -9 10 -9 16 -1 21 8 5 8 11 -1 21 -12 15 -31 18 -42 7z"/>
<path d="M1195 560 c-3 -5 -1 -10 4 -10 6 0 11 -11 11 -25 0 -14 5 -25 10 -25
6 0 10 11 10 25 0 14 5 25 10 25 6 0 10 5 10 10 0 6 -11 10 -24 10 -14 0 -28
-4 -31 -10z"/>
<path d="M1312 558 c-10 -10 -8 -16 10 -31 l23 -18 -25 6 c-19 6 -22 5 -14 -5
14 -14 46 -10 51 6 2 6 -7 16 -19 22 l-23 12 23 -6 c25 -6 31 11 6 20 -20 8
-18 8 -32 -6z"/>
<path d="M1410 560 c0 -5 5 -10 10 -10 6 0 10 -11 10 -25 0 -14 5 -25 10 -25
6 0 10 11 10 25 0 14 5 25 11 25 5 0 7 5 4 10 -3 6 -17 10 -31 10 -13 0 -24
-4 -24 -10z"/>
<path d="M1487 563 c-4 -3 -7 -19 -7 -35 0 -25 3 -28 33 -27 23 1 26 3 10 6
-27 5 -31 23 -5 24 14 0 14 2 -3 9 -17 7 -17 9 -2 9 9 1 17 6 17 11 0 11 -33
14 -43 3z"/>
<path d="M1595 560 c-4 -6 -16 -8 -28 -4 -19 6 -20 5 -8 -10 11 -13 11 -19 1
-31 -8 -9 -9 -15 -2 -15 6 0 14 5 17 11 5 6 12 4 21 -8 15 -20 19 -6 4 17 -5
9 -5 19 2 27 6 8 8 16 5 19 -3 3 -8 0 -12 -6z"/>
<path d="M1625 560 c-3 -5 -1 -10 4 -10 6 0 11 -11 11 -25 0 -14 5 -25 10 -25
6 0 10 11 10 25 0 14 5 25 10 25 6 0 10 5 10 10 0 6 -11 10 -24 10 -14 0 -28
-4 -31 -10z"/>
<path d="M1725 560 c-3 -5 -1 -10 4 -10 6 0 11 -11 11 -25 0 -14 5 -25 10 -25
6 0 10 11 10 25 0 14 5 25 10 25 6 0 10 5 10 10 0 6 -11 10 -24 10 -14 0 -28
-4 -31 -10z"/>
<path d="M1805 556 c-25 -18 -15 -50 16 -54 28 -3 43 16 33 42 -8 21 -30 26
-49 12z m35 -20 c0 -18 -16 -29 -30 -21 -13 8 -1 35 16 35 8 0 14 -6 14 -14z"/>
<path d="M2125 554 c-9 -9 -14 -23 -11 -31 3 -8 6 -17 6 -19 0 -2 11 -4 25 -4
30 0 41 20 25 49 -13 25 -23 26 -45 5z"/>
<path d="M2197 562 c-3 -4 -3 -19 0 -35 4 -22 11 -27 32 -26 l26 1 -25 7 c-24
7 -24 7 -5 15 20 8 20 8 0 16 -19 8 -19 9 3 9 12 1 22 6 22 11 0 12 -47 14
-53 2z"/>
<path d="M2272 558 c-10 -10 -8 -16 10 -31 l23 -18 -25 6 c-19 6 -22 5 -14 -5
14 -14 46 -10 51 6 2 6 -7 16 -19 23 l-23 12 23 -5 c25 -5 30 9 6 18 -20 8
-18 8 -32 -6z"/>
<path d="M910 530 c0 -16 4 -30 10 -30 5 0 7 8 3 18 -6 16 -5 16 14 0 26 -24
28 -23 28 12 0 17 -3 30 -7 30 -5 0 -8 -8 -8 -17 -1 -17 -1 -17 -11 0 -15 26
-29 20 -29 -13z"/>
<path d="M1910 530 c0 -16 5 -30 10 -30 6 0 10 14 10 30 0 17 -4 30 -10 30 -5
0 -10 -13 -10 -30z"/>
<path d="M1948 530 c-3 -16 -1 -30 4 -30 4 0 8 8 8 18 0 14 2 15 10 2 5 -8 12
-12 15 -8 7 7 -16 48 -26 48 -4 0 -9 -13 -11 -30z"/>
<path d="M1994 538 c3 -13 6 -26 6 -30 0 -5 5 -8 10 -8 6 0 10 14 10 30 0 21
-5 30 -16 30 -12 0 -15 -6 -10 -22z"/>
<path d="M2046 532 l-15 -28 35 0 c19 1 34 2 34 3 0 10 -25 53 -31 53 -5 0
-15 -13 -23 -28z"/>
<path d="M311 536 c10 -11 389 -16 389 -6 0 6 -68 10 -197 10 -108 0 -194 -2
-192 -4z"/>
<path d="M2350 532 c0 -7 296 -5 330 2 8 2 -63 4 -157 5 -95 0 -173 -3 -173
-7z"/>
</g>
</svg>
