<?xml version="1.0" standalone="no"?>
<!DOCTYPE svg PUBLIC "-//W3C//DTD SVG 20010904//EN"
 "http://www.w3.org/TR/2001/REC-SVG-20010904/DTD/svg10.dtd">
<svg version="1.0" xmlns="http://www.w3.org/2000/svg"
 width="299.000000pt" height="87.000000pt" viewBox="0 0 299.000000 87.000000"
 preserveAspectRatio="xMidYMid meet">

<g transform="translate(0.000000,87.000000) scale(0.100000,-0.100000)"
fill="#000000" stroke="none">
<path d="M1460 785 c0 -43 -1 -45 -29 -45 -22 0 -31 6 -41 30 -18 43 -24 44
-70 15 -46 -29 -48 -37 -20 -72 25 -32 25 -40 0 -48 -13 -4 -31 1 -49 14 -16
12 -34 21 -39 21 -12 0 -52 -61 -52 -79 0 -17 59 -37 125 -43 58 -5 62 -4 76
21 18 31 87 54 166 55 39 1 53 -3 53 -13 0 -9 8 -12 26 -8 22 4 28 -1 39 -26
13 -31 14 -140 1 -168 -5 -11 -2 -19 8 -22 11 -4 21 6 36 36 27 57 14 8 -17
-60 -13 -31 -28 -52 -32 -47 -5 5 -24 55 -42 112 l-34 103 -55 -3 -55 -3 -3
-180 -2 -181 39 -1 40 -2 3 101 3 100 36 -97 c35 -96 37 -98 70 -102 l35 -3
44 107 45 108 3 -107 3 -108 39 0 c39 0 40 1 41 38 0 20 1 101 2 180 l2 143
-63 -3 c-73 -4 -83 7 -14 16 27 3 57 13 68 20 19 15 19 16 -5 60 -13 25 -28
46 -34 46 -5 0 -25 -10 -44 -21 -32 -20 -36 -20 -51 -6 -15 15 -14 18 5 39 35
39 34 45 -7 72 -22 14 -43 26 -47 26 -5 0 -19 -16 -32 -35 -13 -19 -32 -35
-42 -35 -16 0 -19 8 -19 50 l0 50 -55 0 -55 0 0 -45z"/>
<path d="M1573 613 c9 -2 25 -2 35 0 9 3 1 5 -18 5 -19 0 -27 -2 -17 -5z"/>
<path d="M4 551 c-2 -2 0 -9 5 -15 5 -6 32 -84 61 -173 l52 -163 41 0 42 0 24
75 c14 41 28 75 33 75 4 0 18 -34 30 -75 l23 -75 40 0 40 0 53 158 c75 221 73
204 22 200 l-44 -3 -28 -99 c-15 -55 -30 -101 -32 -103 -5 -5 -29 76 -47 155
l-12 52 -42 0 -42 0 -32 -105 c-18 -58 -34 -105 -36 -105 -3 0 -30 85 -61 193
-4 13 -14 17 -46 15 -22 -2 -41 -5 -44 -7z"/>
<path d="M1054 545 c-4 -8 -3 -22 0 -31 6 -15 19 -16 101 -10 152 10 199 -22
199 -138 -1 -68 -27 -133 -66 -160 -28 -20 -6 -21 30 -2 31 16 74 61 91 93 17
32 14 140 -5 179 -9 19 -30 45 -46 59 -28 24 -35 25 -164 25 -110 0 -136 -3
-140 -15z"/>
<path d="M2630 380 l0 -180 35 0 35 0 0 83 c0 93 15 127 55 127 36 0 46 -30
44 -128 l-2 -87 38 -3 37 -3 -4 110 c-3 92 -7 114 -24 138 -31 41 -66 51 -109
30 l-35 -17 0 55 0 55 -35 0 -35 0 0 -180z"/>
<path d="M561 488 c-56 -28 -81 -69 -81 -134 0 -200 300 -207 317 -7 11 128
-113 202 -236 141z m138 -74 c26 -33 29 -105 4 -125 -9 -8 -36 -14 -60 -14
-53 0 -83 29 -83 80 0 50 33 85 80 85 30 0 43 -6 59 -26z"/>
<path d="M810 355 l0 -155 35 0 35 0 0 50 c0 28 3 50 7 50 3 0 32 -25 64 -55
58 -55 92 -68 117 -43 19 19 14 38 -11 38 -13 0 -39 16 -61 39 l-38 39 35 17
c60 28 73 100 26 144 -23 21 -69 31 -151 31 l-58 0 0 -155z m155 71 c16 -12
17 -16 6 -30 -8 -9 -28 -16 -47 -16 -31 0 -34 3 -34 30 0 26 4 30 28 30 16 0
37 -6 47 -14z"/>
<path d="M1949 487 c-55 -30 -81 -73 -81 -137 0 -91 57 -150 147 -150 98 0
165 63 165 155 0 129 -114 194 -231 132z m116 -53 c26 -10 48 -62 40 -100 -18
-97 -155 -77 -155 22 0 64 55 101 115 78z"/>
<path d="M2200 507 c0 -1 -1 -71 -3 -155 l-2 -152 38 0 37 0 0 103 c0 117 12
141 66 134 l28 -4 0 -119 1 -119 33 -3 c32 -3 32 -3 32 43 0 41 2 46 18 40 92
-41 178 17 169 112 -9 84 -75 136 -146 114 -19 -5 -39 -7 -44 -4 -9 5 -227 15
-227 10z m329 -81 c17 -20 10 -77 -11 -90 -28 -17 -72 4 -76 38 -6 51 57 89
87 52z m63 -88 c-7 -7 -12 -8 -12 -2 0 14 12 26 19 19 2 -3 -1 -11 -7 -17z"/>
<path d="M2940 494 c0 -6 6 -17 14 -23 11 -9 15 -8 20 5 9 24 7 31 -4 14 -9
-13 -11 -13 -20 0 -5 8 -10 10 -10 4z"/>
<path d="M1185 485 c6 -2 27 -6 48 -10 20 -3 37 -10 37 -16 0 -6 -8 -5 -21 2
-23 12 -88 6 -121 -12 -30 -16 -58 -70 -58 -113 0 -33 7 -45 40 -78 36 -33 47
-38 89 -38 100 0 156 91 116 187 -14 33 -14 34 2 22 15 -13 15 -12 4 8 -16 31
-62 53 -108 52 -21 0 -33 -2 -28 -4z m62 -87 c34 -27 18 -99 -25 -112 -28 -9
-71 10 -81 36 -25 67 50 121 106 76z"/>
<path d="M580 95 c-28 -33 23 -77 54 -45 8 9 5 10 -15 5 -19 -5 -28 -2 -32 9
-8 20 16 38 38 29 13 -4 16 -3 11 5 -10 17 -41 15 -56 -3z"/>
<path d="M670 95 c-20 -24 -3 -55 30 -55 20 0 31 6 35 20 8 25 -10 50 -35 50
-10 0 -23 -7 -30 -15z m48 -23 c3 -17 -2 -22 -17 -22 -14 0 -21 6 -21 18 0 38
33 41 38 4z"/>
<path d="M771 69 c2 -32 3 -36 6 -15 4 28 5 28 19 7 22 -31 34 -26 34 14 0 19
-4 35 -10 35 -5 0 -10 -7 -10 -17 0 -14 -2 -14 -20 2 -20 18 -20 17 -19 -26z"/>
<path d="M850 101 c0 -20 24 -61 34 -58 14 5 39 67 27 67 -5 0 -13 -9 -16 -20
-7 -23 -25 -27 -25 -6 0 8 -4 18 -10 21 -5 3 -10 2 -10 -4z"/>
<path d="M940 75 c0 -33 2 -35 33 -34 23 1 26 3 10 6 -27 5 -31 23 -5 24 12 0
10 3 -8 11 l-25 11 30 7 30 8 -32 1 c-31 1 -33 -1 -33 -34z"/>
<path d="M1020 75 c0 -19 5 -35 10 -35 6 0 10 5 10 12 0 9 3 9 12 0 17 -17 33
-15 19 2 -9 11 -9 15 0 18 22 7 1 38 -26 38 -22 0 -25 -4 -25 -35z m45 15 c3
-5 -1 -10 -9 -10 -9 0 -16 5 -16 10 0 6 4 10 9 10 6 0 13 -4 16 -10z"/>
<path d="M1108 103 c6 -2 12 -15 12 -28 0 -13 5 -27 10 -30 6 -4 10 6 10 24 0
20 6 31 18 34 9 3 -1 5 -23 5 -22 0 -34 -2 -27 -5z"/>
<path d="M1247 103 c-12 -12 -7 -33 7 -33 8 0 18 -5 22 -11 5 -9 -1 -10 -22
-5 -27 7 -28 6 -13 -9 13 -14 21 -15 38 -6 26 15 27 28 1 36 -11 3 -20 11 -20
16 0 6 9 7 21 4 15 -5 19 -4 15 4 -8 12 -39 15 -49 4z"/>
<path d="M1372 98 c9 -7 19 -24 21 -38 4 -25 4 -25 6 2 0 15 9 32 19 37 14 8
9 10 -22 11 -34 0 -37 -2 -24 -12z"/>
<path d="M1450 75 c0 -33 2 -35 33 -34 l32 1 -30 8 -30 7 25 11 c24 10 24 11
3 11 -32 1 -29 19 5 24 25 4 25 4 -5 6 -31 1 -33 -1 -33 -34z"/>
<path d="M1540 95 c7 -8 9 -24 5 -37 -6 -19 -5 -21 6 -11 10 10 16 9 31 -4 20
-18 25 -4 6 15 -10 10 -10 17 0 32 13 21 3 27 -15 9 -8 -8 -13 -8 -17 0 -4 6
-12 11 -18 11 -7 0 -6 -5 2 -15z"/>
<path d="M1628 103 c6 -2 12 -18 12 -34 0 -16 5 -29 10 -29 6 0 10 13 10 29 0
16 6 32 13 34 6 3 -4 5 -23 5 -19 0 -29 -2 -22 -5z"/>
<path d="M1748 103 c6 -2 12 -18 12 -34 0 -16 5 -29 10 -29 6 0 10 13 10 29 0
16 6 32 13 34 6 3 -4 5 -23 5 -19 0 -29 -2 -22 -5z"/>
<path d="M1827 104 c-14 -14 -7 -53 12 -63 26 -14 54 8 49 40 -2 17 -10 25
-28 27 -14 2 -29 0 -33 -4z m46 -40 c-3 -8 -12 -14 -19 -14 -20 0 -30 30 -13
40 17 11 40 -7 32 -26z"/>
<path d="M1963 75 c0 -22 2 -30 4 -17 2 12 2 30 0 40 -3 9 -5 -1 -4 -23z"/>
<path d="M2007 104 c-11 -11 -8 -64 3 -64 6 0 10 8 10 18 0 14 2 14 9 3 8 -12
12 -12 24 -2 13 10 16 9 20 -6 3 -10 5 -1 6 20 1 40 -14 50 -25 15 l-6 -21
-17 22 c-9 12 -20 19 -24 15z"/>
<path d="M2125 80 c-16 -32 -22 -66 -6 -41 5 8 19 12 35 9 14 -3 26 -3 26 -1
0 8 -31 63 -35 63 -2 0 -11 -13 -20 -30z"/>
<path d="M2210 91 c-13 -25 -13 -27 6 -45 19 -20 29 -20 48 0 22 22 20 34 -6
33 -13 0 -17 -3 -10 -6 16 -6 6 -23 -14 -23 -10 0 -14 8 -12 23 2 16 9 21 26
20 13 -2 21 1 17 7 -10 17 -44 11 -55 -9z"/>
<path d="M2300 75 c0 -33 2 -35 33 -34 23 1 26 3 10 6 -27 5 -30 20 -5 26 13
4 11 5 -5 6 -32 1 -29 19 5 24 25 4 25 4 -5 6 -31 1 -33 -1 -33 -34z"/>
<path d="M2384 99 c-4 -7 4 -20 17 -31 24 -19 24 -19 2 -13 -13 4 -23 2 -23
-3 0 -13 27 -23 45 -16 22 9 18 35 -5 41 -11 3 -20 10 -20 15 0 6 9 8 20 5 11
-3 20 -1 20 4 0 13 -48 11 -56 -2z"/>
<path d="M2485 79 c-4 -5 64 -9 171 -9 98 0 175 2 173 4 -10 8 -339 14 -344 5z"/>
<path d="M218 73 c57 -2 147 -2 200 0 53 1 7 3 -103 3 -110 0 -154 -2 -97 -3z"/>
</g>
</svg>
