<?xml version="1.0" standalone="no"?>
<!DOCTYPE svg PUBLIC "-//W3C//DTD SVG 20010904//EN"
 "http://www.w3.org/TR/2001/REC-SVG-20010904/DTD/svg10.dtd">
<svg version="1.0" xmlns="http://www.w3.org/2000/svg"
 width="82.000000pt" height="144.000000pt" viewBox="0 0 82.000000 144.000000"
 preserveAspectRatio="xMidYMid meet">

<g transform="translate(0.000000,144.000000) scale(0.100000,-0.100000)"
fill="#000000" stroke="none">
<path d="M334 1166 c-180 -57 -233 -294 -93 -421 50 -45 100 -65 163 -65 75 0
118 15 168 60 151 132 96 375 -97 429 -51 14 -89 13 -141 -3z m156 -86 c54
-27 83 -72 88 -137 5 -64 -9 -103 -54 -143 -45 -39 -102 -54 -154 -40 -48 13
-103 59 -120 100 -18 44 -8 130 19 169 48 67 145 90 221 51z"/>
<path d="M327 619 c-70 -10 -164 -47 -205 -80 -88 -71 -122 -208 -49 -197 22
3 33 19 41 60 9 39 70 94 135 120 79 31 241 31 322 -1 65 -25 126 -79 135
-119 8 -41 19 -57 41 -60 50 -8 54 62 7 134 -68 105 -258 169 -427 143z"/>
</g>
</svg>
